<svg width="188" height="188" viewBox="0 0 188 188" fill="none" xmlns="http://www.w3.org/2000/svg">
<g clip-path="url(#clip0_5698_41080)">
<rect width="188" height="188" fill="#E9ECEF"/>
<path d="M94 40.375C80.5381 40.375 69.625 51.2881 69.625 64.75C69.625 78.2119 80.5381 89.125 94 89.125C107.462 89.125 118.375 78.2119 118.375 64.75C118.375 51.2881 107.462 40.375 94 40.375Z" fill="#8EA0AF"/>
<path d="M68 102.125C54.5381 102.125 43.625 113.038 43.625 126.5V134.224C43.625 139.12 47.1732 143.294 52.0053 144.083C79.8176 148.624 108.182 148.624 135.995 144.083C140.827 143.294 144.375 139.12 144.375 134.224V126.5C144.375 113.038 133.462 102.125 120 102.125H117.784C116.585 102.125 115.393 102.315 114.254 102.687L108.628 104.524C99.1228 107.628 88.8772 107.628 79.3723 104.524L73.7465 102.687C72.6065 102.315 71.4148 102.125 70.2156 102.125H68Z" fill="#8EA0AF"/>
</g>
<defs>
<clipPath id="clip0_5698_41080">
<rect width="188" height="188" rx="8" fill="white"/>
</clipPath>
</defs>
</svg>
